<svg xmlns="http://www.w3.org/2000/svg" viewBox="0 0 104.59 107.84"><defs><style>.cls-1{fill:#c6ced9;}</style></defs><g id="Layer_2" data-name="Layer 2"><g id="Layer_1-2" data-name="Layer 1"><path class="cls-1" d="M73.51,40a2,2,0,1,1,3.06,2.57c-2.59,3.08-5.28,6.13-8,9.08a2,2,0,0,1-1.48.64,2,2,0,0,1-1.35-.53,2,2,0,0,1-.12-2.82C68.31,46,71,43,73.51,40ZM94.67,11.18a2,2,0,0,0,1.69,3.07A2,2,0,0,0,98,13.33C100.2,10,102.32,6.47,104.32,3a2,2,0,1,0-3.46-2C98.88,4.42,96.8,7.85,94.67,11.18ZM48.77,65.7a2,2,0,1,0,2.7,3c3-2.7,5.9-5.51,8.74-8.34a2,2,0,1,0-2.82-2.83C54.59,60.27,51.69,63,48.77,65.7ZM81,30.67a2,2,0,0,0,3.17,2.44c2.46-3.19,4.87-6.47,7.16-9.74A2,2,0,0,0,88,21.07C85.78,24.3,83.4,27.52,81,30.67ZM10.35,97.35A2,2,0,0,0,13.1,98c3.39-2.15,6.78-4.4,10.07-6.69A2,2,0,1,0,20.88,88c-3.24,2.26-6.58,4.48-9.92,6.59A2,2,0,0,0,10.35,97.35ZM30.12,83.78a2,2,0,0,0,1.59.78,2,2,0,0,0,1.22-.41c3.18-2.43,6.35-5,9.44-7.54a2,2,0,0,0-2.57-3.07c-3,2.54-6.17,5-9.3,7.43A2,2,0,0,0,30.12,83.78Zm-23.25,3a2,2,0,0,0-3.94-.69l-.87,4.92a2,2,0,0,0,1.62,2.32l.35,0a2,2,0,0,0,2-1.65ZM1.65,104.91l4.93.87a2,2,0,0,0,.69-3.94l-2.95-.52.52-3A2,2,0,1,0,.9,97.67L0,102.59A2,2,0,0,0,1.65,104.91Zm9.91-.29a2,2,0,0,0,1.62,2.32l4.92.87.35,0a2,2,0,0,0,.35-4L13.87,103A2,2,0,0,0,11.56,104.62Z"/></g></g></svg>