<svg xmlns="http://www.w3.org/2000/svg" viewBox="0 0 104.59 107.84"><defs><style>.cls-1{fill:#c6ced9;}</style></defs><g id="Layer_2" data-name="Layer 2"><g id="Layer_1-2" data-name="Layer 1"><path class="cls-1" d="M39,48.89a2,2,0,0,1-.12,2.82A2,2,0,0,1,36,51.6c-2.71-3-5.4-6-8-9.08A2,2,0,1,1,31.08,40C33.63,43,36.28,46,39,48.89ZM3.73,1A2,2,0,0,0,.27,3c2,3.47,4.12,7,6.28,10.33a2,2,0,0,0,3.37-2.15C7.79,7.85,5.71,4.42,3.73,1ZM47.2,57.48a2,2,0,1,0-2.82,2.83c2.84,2.83,5.78,5.64,8.74,8.34a2,2,0,1,0,2.7-3C52.9,63,50,60.27,47.2,57.48ZM16.55,21.07a2,2,0,0,0-3.27,2.3c2.3,3.27,4.7,6.55,7.16,9.74a2,2,0,0,0,1.59.78,2,2,0,0,0,1.58-3.22C21.19,27.52,18.82,24.3,16.55,21.07ZM93.63,94.59C90.29,92.48,87,90.26,83.71,88a2,2,0,1,0-2.28,3.28c3.29,2.29,6.67,4.54,10.06,6.69a2,2,0,0,0,2.76-.62A2,2,0,0,0,93.63,94.59ZM74.09,81c-3.13-2.39-6.26-4.89-9.3-7.43a2,2,0,1,0-2.56,3.07c3.08,2.57,6.26,5.11,9.44,7.54a2,2,0,0,0,1.21.41A2,2,0,0,0,74.09,81Zm24.5,10.79a2,2,0,0,0,2,1.65l.35,0a2,2,0,0,0,1.62-2.32l-.87-4.92a2,2,0,0,0-3.94.69Zm6,10.83-.87-4.92a2,2,0,1,0-3.93.69l.52,3-3,.52a2,2,0,0,0,.35,4l.35,0,4.92-.87A2,2,0,0,0,104.56,102.59ZM90.72,103l-4.92.87a2,2,0,0,0,.34,4,2.07,2.07,0,0,0,.35,0l4.93-.87a2,2,0,1,0-.7-3.94Z"/></g></g></svg>