<?xml version="1.0" encoding="UTF-8"?>
<svg xmlns="http://www.w3.org/2000/svg" width="64" height="64" viewBox="0 0 64 64" fill="none">
  <path d="M61.6778 44.0137H42.9806C41.7006 44.0137 40.6675 42.9805 40.6675 41.7005V31.5885C40.6675 30.3085 41.7006 29.2754 42.9806 29.2754H61.6778C62.9578 29.2754 63.9909 30.3085 63.9909 31.5885V41.7005C63.9909 42.9805 62.9578 44.0137 61.6778 44.0137Z" fill="#68B490"></path>
  <path d="M21.0194 31.0584H2.31314C1.03314 31.0584 0 30.0252 0 28.7452V24.3841C0 23.1041 1.03314 22.0709 2.31314 22.0709H21.0103C22.2903 22.0709 23.3234 23.1041 23.3234 24.3841V28.7452C23.3326 30.0252 22.2994 31.0584 21.0194 31.0584Z" fill="#68B490"></path>
  <path d="M50.2859 46.4001V9.62749C50.2859 7.21377 48.1739 5.2572 45.5682 5.2572H13.8608C11.2551 5.2572 9.14307 7.21377 9.14307 9.62749V46.3909" stroke="#0D3F4A" stroke-width="1.5" stroke-miterlimit="10" stroke-linecap="round"></path>
  <path d="M13.7144 13.7051H45.6961" stroke="#0D3F4A" stroke-width="1.5" stroke-miterlimit="10" stroke-linecap="round"></path>
  <path d="M14.8388 10.6423C15.4094 10.6423 15.8719 10.1798 15.8719 9.60919C15.8719 9.0386 15.4094 8.57605 14.8388 8.57605C14.2682 8.57605 13.8057 9.0386 13.8057 9.60919C13.8057 10.1798 14.2682 10.6423 14.8388 10.6423Z" fill="#0D3F4A"></path>
  <path d="M18.8798 10.6423C19.4504 10.6423 19.913 10.1798 19.913 9.60919C19.913 9.0386 19.4504 8.57605 18.8798 8.57605C18.3092 8.57605 17.8467 9.0386 17.8467 9.60919C17.8467 10.1798 18.3092 10.6423 18.8798 10.6423Z" fill="#0D3F4A"></path>
  <path d="M22.9213 10.6423C23.4919 10.6423 23.9545 10.1798 23.9545 9.60919C23.9545 9.0386 23.4919 8.57605 22.9213 8.57605C22.3507 8.57605 21.8882 9.0386 21.8882 9.60919C21.8882 10.1798 22.3507 10.6423 22.9213 10.6423Z" fill="#0D3F4A"></path>
  <path d="M15.4517 41.8286H29.1568" stroke="#0D3F4A" stroke-width="1.5" stroke-miterlimit="10" stroke-linecap="round"></path>
  <path d="M25.6001 60.1143H16.5304C15.2504 60.1143 14.2173 59.0811 14.2173 57.8011V50.0754C14.2173 48.7954 15.2504 47.7623 16.5304 47.7623H25.6001C26.8801 47.7623 27.9133 48.7954 27.9133 50.0754V57.8011C27.9224 59.072 26.8801 60.1143 25.6001 60.1143Z" fill="#68B490"></path>
  <path d="M4.57129 51.6846H54.857" stroke="#0D3F4A" stroke-width="1.5" stroke-miterlimit="10" stroke-linecap="round"></path>
</svg>
