<?xml version="1.0" encoding="UTF-8"?>
<!-- Generator: Adobe Illustrator 27.0.1, SVG Export Plug-In . SVG Version: 6.00 Build 0)  -->
<svg xmlns="http://www.w3.org/2000/svg" xmlns:xlink="http://www.w3.org/1999/xlink" version="1.1" id="Layer_1" x="0px" y="0px" viewBox="0 0 772 473" style="enable-background:new 0 0 772 473;" xml:space="preserve">
<style type="text/css">
	.st0{fill:url(#SVGID_1_);}
	.st1{clip-path:url(#SVGID_00000174566357418387313730000001886485656523986092_);}
	.st2{fill:#FFFFFF;}
	.st3{fill:none;stroke:#E1E1DC;stroke-width:0.2688;}
	.st4{fill:#0D3F4A;}
	.st5{fill:#CE1126;}
	.st6{fill:#E1E1DC;}
	.st7{fill:#F6F6F4;}
	.st8{fill:none;stroke:#CDCDC6;stroke-width:0.8065;stroke-linecap:round;}
	.st9{fill:#16875E;}
	.st10{fill:#FAE7E9;}
	.st11{fill:url(#SVGID_00000030446760203835812570000009492243459183963036_);}
	.st12{fill:none;stroke:#000000;stroke-width:0.8065;stroke-linecap:round;}
	.st13{clip-path:url(#SVGID_00000163042724968871770770000006417107385468409262_);}
	.st14{fill:#0A6943;}
	.st15{fill:#00173B;}
	.st16{fill:#0056D9;}
	.st17{fill:url(#SVGID_00000098214694791818100710000017039936661073496206_);}
	.st18{fill:none;stroke:#0056D9;stroke-width:0.8065;stroke-linecap:round;}
	.st19{fill:#B3D1FF;}
	.st20{fill:#00388C;}
	.st21{fill:#F2F7FF;}
</style>
<linearGradient id="SVGID_1_" gradientUnits="userSpaceOnUse" x1="337" y1="466" x2="649" y2="154" gradientTransform="matrix(1 0 0 -1 0 474)">
	<stop offset="0" style="stop-color:#0D3F4A"></stop>
	<stop offset="1" style="stop-color:#10182C"></stop>
</linearGradient>
<circle class="st0" cx="493" cy="164" r="156"></circle>
<g>
	<g>
		<defs>
			<path id="SVGID_00000081610577813135965160000011036575961278137274_" d="M123.3,53H512c4,0,7.3,3.3,7.3,7.3V321     c0,4-3.3,7.3-7.3,7.3H123.3c-4,0-7.3-3.3-7.3-7.3V60.3C116,56.3,119.3,53,123.3,53z"></path>
		</defs>
		<clipPath id="SVGID_00000027584397560461939110000016328765388126503552_">
			<use xlink:href="#SVGID_00000081610577813135965160000011036575961278137274_" style="overflow:visible;"></use>
		</clipPath>
		<g style="clip-path:url(#SVGID_00000027584397560461939110000016328765388126503552_);">
			<path class="st2" d="M123.3,53H512c4,0,7.3,3.3,7.3,7.3V321c0,4-3.3,7.3-7.3,7.3H123.3c-4,0-7.3-3.3-7.3-7.3V60.3     C116,56.3,119.3,53,123.3,53z"></path>
			<rect x="116" y="53" class="st2" width="403.2" height="17.7"></rect>
			<path class="st3" d="M116,70.7l403.2,0"></path>
			<path class="st4" d="M123.8,63.2h4.8v-0.5h-4.8V63.2z M123.8,61.9h4.8v-0.5h-4.8V61.9z M123.8,60v0.5h4.8V60H123.8z"></path>
			<path class="st5" d="M141.7,58.5c-0.3,0-0.6,0.1-0.8,0.2c0.5,0.4,0.7,1,0.7,1.7c0,0.7-0.3,1.3-0.7,1.7c0.2,0.1,0.5,0.2,0.8,0.2     c1.1,0,1.9-0.8,1.9-1.9C143.6,59.3,142.8,58.5,141.7,58.5z"></path>
			<path class="st5" d="M140,61.1c-0.5,0.4-0.7,1-0.7,1.7c0,0.7,0.3,1.3,0.7,1.7c-0.2,0.1-0.5,0.2-0.8,0.2c-1.1,0-1.9-0.8-1.9-1.9     c0-1,0.9-1.9,1.9-1.9C139.5,61,139.7,61,140,61.1z"></path>
			<path class="st5" d="M140,62c0.4,0.4,1.1,0.7,1.8,0.7s1.3-0.3,1.8-0.7c0.1,0.2,0.2,0.5,0.2,0.8c0,1-0.9,1.9-1.9,1.9     c-1.1,0-1.9-0.8-1.9-1.9C139.8,62.5,139.8,62.3,140,62z"></path>
			<path class="st5" d="M140.9,61.2c-0.4-0.4-1.1-0.7-1.8-0.7c-0.7,0-1.3,0.3-1.8,0.7c-0.1-0.2-0.2-0.5-0.2-0.8c0-1,0.9-1.9,1.9-1.9     c1.1,0,1.9,0.8,1.9,1.9C141.1,60.7,141,60.9,140.9,61.2z"></path>
			<path d="M146.3,58.9h0.7l1.4,3.9h0c0-0.1,0-0.2,0-0.3c0-0.1,0-0.2,0-0.4c0-0.1,0-0.3,0-0.5c0-0.2,0-0.4,0-0.6v-2.1h0.8v5.8h-0.7     l-1.4-3.8h0c0,0.1,0,0.2,0,0.3c0,0.1,0,0.3,0,0.4c0,0.2,0,0.3,0,0.6c0,0.2,0,0.5,0,0.8v1.7h-0.8V58.9z"></path>
			<path d="M151.1,64.7c-0.2,0-0.4,0-0.5-0.1c-0.2-0.1-0.3-0.2-0.4-0.3c-0.1-0.2-0.2-0.4-0.2-0.6c-0.1-0.2-0.1-0.5-0.1-0.9v-0.9     c0-0.3,0-0.5,0.1-0.8c0-0.2,0.1-0.4,0.2-0.5c0.1-0.1,0.2-0.3,0.3-0.3c0.1-0.1,0.2-0.1,0.3-0.2c0.1,0,0.2-0.1,0.3-0.1     c0.1,0,0.2,0,0.3,0c0.2,0,0.3,0,0.5,0.1c0.1,0,0.3,0.1,0.4,0.2c0.1,0.1,0.2,0.3,0.3,0.4c0.1,0.2,0.1,0.4,0.1,0.7     c0,0.1,0,0.2,0,0.3c0,0.1,0,0.2,0,0.3c0,0.1,0,0.2,0,0.3c0,0.1,0,0.2,0,0.2h-1.6V63c0,0.2,0,0.4,0,0.5c0,0.1,0,0.2,0.1,0.3     c0,0.1,0.1,0.1,0.2,0.2c0.1,0,0.2,0.1,0.2,0.1c0.1,0,0.1,0,0.2,0c0.1,0,0.1-0.1,0.1-0.1c0,0,0.1-0.1,0.1-0.2c0-0.1,0-0.2,0-0.3     v-0.1h0.7v0.2c0,0.4-0.1,0.8-0.3,1C151.8,64.6,151.5,64.7,151.1,64.7z M151.6,61.9C151.6,61.9,151.6,61.9,151.6,61.9     c0-0.1,0-0.2,0-0.2c0,0,0-0.1,0-0.1c0,0,0-0.1,0-0.1c0-0.3,0-0.5-0.1-0.7c-0.1-0.1-0.2-0.2-0.3-0.2c-0.1,0-0.1,0-0.2,0.1     c-0.1,0-0.1,0.1-0.1,0.2c0,0.1-0.1,0.2-0.1,0.3c0,0.1,0,0.3,0,0.5v0.3H151.6z"></path>
			<path d="M152.6,60h0.8l0.3,2.5l0.1,0.9h0l0.1-0.9l0.5-2.5h0.7l0.5,2.5l0.1,0.9h0l0.1-0.9l0.3-2.5h0.8l-0.8,4.6h-0.8l-0.5-2.6     l-0.1-0.7h0l-0.1,0.7l-0.4,2.6h-0.8L152.6,60z"></path>
			<path d="M158.8,58.9h0.9c0.1,0,0.3,0,0.4,0c0.1,0,0.3,0,0.4,0.1c0.1,0,0.3,0.1,0.4,0.1c0.1,0.1,0.2,0.1,0.3,0.2     c0.1,0.1,0.2,0.2,0.2,0.4c0.1,0.1,0.1,0.3,0.1,0.5v0.3c0,0.2,0,0.3-0.1,0.4c0,0.1-0.1,0.2-0.2,0.3c-0.1,0.1-0.2,0.2-0.3,0.2     c-0.1,0.1-0.2,0.1-0.3,0.1v0c0.3,0.1,0.5,0.2,0.7,0.4c0.2,0.2,0.2,0.5,0.2,0.8v0.3c0,0.2,0,0.4-0.1,0.5c0,0.2-0.1,0.3-0.2,0.4     c-0.1,0.1-0.2,0.2-0.3,0.3c-0.1,0.1-0.2,0.1-0.4,0.2c-0.1,0-0.3,0.1-0.4,0.1c-0.2,0-0.3,0-0.5,0h-0.9V58.9z M159.8,61.3     c0.1,0,0.2,0,0.3,0c0.1,0,0.2-0.1,0.3-0.1c0.1-0.1,0.1-0.1,0.2-0.2c0-0.1,0.1-0.2,0.1-0.3v-0.2c0-0.1,0-0.3,0-0.4     c0-0.1-0.1-0.2-0.1-0.3c-0.1-0.1-0.1-0.1-0.2-0.2c-0.1,0-0.2-0.1-0.4-0.1h-0.2v1.8H159.8z M159.9,64c0.1,0,0.2,0,0.3,0     c0.1,0,0.2-0.1,0.3-0.1c0.1-0.1,0.1-0.1,0.2-0.2c0-0.1,0.1-0.2,0.1-0.4v-0.4c0-0.1,0-0.3,0-0.4c0-0.1-0.1-0.2-0.1-0.3     c-0.1-0.1-0.1-0.1-0.2-0.2c-0.1,0-0.2-0.1-0.4-0.1h-0.3V64H159.9z"></path>
			<path d="M162.8,64.7c-0.1,0-0.3,0-0.4-0.1c-0.1-0.1-0.2-0.1-0.3-0.2c-0.1-0.1-0.1-0.2-0.2-0.4c0-0.1-0.1-0.3-0.1-0.4     c0-0.2,0-0.4,0.1-0.5s0.1-0.3,0.2-0.4c0.1-0.1,0.2-0.2,0.3-0.3c0.1-0.1,0.3-0.2,0.5-0.3c0.1,0,0.2-0.1,0.3-0.1     c0.1,0,0.2-0.1,0.3-0.1v-0.6c0-0.1,0-0.2,0-0.2c0-0.1,0-0.1-0.1-0.2c0-0.1-0.1-0.1-0.1-0.1c-0.1,0-0.1-0.1-0.2-0.1     c-0.1,0-0.1,0-0.2,0c-0.1,0-0.1,0.1-0.2,0.1c0,0.1-0.1,0.1-0.1,0.2c0,0.1,0,0.2,0,0.3v0.2H162c0-0.1,0-0.2,0-0.2     c0-0.1,0-0.1,0-0.2c0-0.2,0-0.3,0.1-0.5c0.1-0.1,0.1-0.2,0.3-0.3c0.1-0.1,0.2-0.2,0.4-0.2c0.2,0,0.3-0.1,0.5-0.1     c0.2,0,0.4,0,0.6,0.1c0.2,0,0.3,0.1,0.4,0.2c0.1,0.1,0.2,0.2,0.2,0.4c0,0.2,0.1,0.3,0.1,0.5v3.5h-0.6l-0.1-0.4     c-0.1,0.1-0.2,0.2-0.4,0.3C163.2,64.7,163,64.7,162.8,64.7z M163.2,64c0.1,0,0.1,0,0.2-0.1c0.1,0,0.1-0.1,0.2-0.1v-1.5     c0,0-0.1,0-0.2,0.1c-0.1,0-0.1,0.1-0.2,0.1c-0.1,0-0.1,0.1-0.2,0.1c-0.1,0.1-0.1,0.1-0.2,0.2c0,0.1-0.1,0.2-0.1,0.3     c0,0.1,0,0.2,0,0.3c0,0.2,0,0.3,0.1,0.4C162.9,64,163,64,163.2,64z"></path>
			<path d="M165.1,60h0.7l0.1,0.5v0c0.1-0.1,0.1-0.2,0.2-0.3c0.1-0.1,0.2-0.1,0.2-0.2c0.1,0,0.2-0.1,0.3-0.1c0.1,0,0.2,0,0.3,0     c0.3,0,0.5,0.1,0.6,0.3c0.2,0.2,0.2,0.5,0.2,0.9v3.6h-0.9v-3.5c0-0.2,0-0.3-0.1-0.4c-0.1-0.1-0.2-0.1-0.3-0.1     c-0.1,0-0.2,0-0.3,0.1c-0.1,0.1-0.2,0.1-0.2,0.2v3.8h-0.9V60z"></path>
			<path d="M168.5,58.5h0.9V62h0l1-2h0.8l-1.1,2.1l1.2,2.5h-0.9l-1-2.3h0v2.3h-0.9V58.5z"></path>
			<path d="M174.2,64.7c-0.1,0-0.2,0-0.3,0c-0.1,0-0.2,0-0.3-0.1c-0.1,0-0.2-0.1-0.3-0.2c-0.1-0.1-0.2-0.2-0.3-0.3     c-0.1-0.1-0.1-0.3-0.2-0.5c0-0.2-0.1-0.5-0.1-0.7v-2c0-0.3,0-0.5,0.1-0.7c0-0.2,0.1-0.4,0.2-0.5c0.1-0.1,0.2-0.3,0.3-0.3     c0.1-0.1,0.2-0.1,0.3-0.2c0.1,0,0.2-0.1,0.3-0.1c0.1,0,0.2,0,0.3,0c0.2,0,0.4,0,0.6,0.1c0.2,0.1,0.3,0.2,0.4,0.3     c0.1,0.1,0.2,0.2,0.2,0.4c0,0.1,0.1,0.3,0.1,0.5c0,0.1,0,0.2,0,0.3c0,0.1,0,0.2-0.1,0.3h-0.7v-0.3c0-0.3,0-0.6-0.1-0.7     c-0.1-0.2-0.2-0.2-0.3-0.2c-0.1,0-0.2,0-0.2,0c-0.1,0-0.1,0.1-0.2,0.2c0,0.1-0.1,0.2-0.1,0.3c0,0.1,0,0.3,0,0.5v2.6     c0,0.2,0,0.3,0,0.4c0,0.1,0,0.2,0.1,0.3c0,0.1,0.1,0.1,0.2,0.2c0.1,0,0.1,0,0.2,0c0.1,0,0.1,0,0.2,0c0.1,0,0.1-0.1,0.1-0.1     c0-0.1,0.1-0.1,0.1-0.2c0-0.1,0-0.2,0-0.3v-0.6h0.8v0.5c0,0.5-0.1,0.8-0.3,1C174.9,64.6,174.6,64.7,174.2,64.7z"></path>
			<path d="M177.1,64.7c-0.1,0-0.2,0-0.3,0c-0.1,0-0.2,0-0.3-0.1c-0.1,0-0.2-0.1-0.3-0.2c-0.1-0.1-0.2-0.2-0.2-0.4s-0.1-0.3-0.2-0.6     c0-0.2-0.1-0.5-0.1-0.8v-0.7c0-0.3,0-0.6,0.1-0.8c0-0.2,0.1-0.4,0.2-0.5c0.1-0.1,0.1-0.3,0.2-0.3c0.1-0.1,0.2-0.2,0.3-0.2     c0.1,0,0.2-0.1,0.3-0.1c0.1,0,0.2,0,0.3,0c0.1,0,0.2,0,0.3,0s0.2,0,0.3,0.1c0.1,0,0.2,0.1,0.3,0.2c0.1,0.1,0.2,0.2,0.2,0.3     c0.1,0.1,0.1,0.3,0.2,0.5c0,0.2,0.1,0.5,0.1,0.8v0.7c0,0.3,0,0.6-0.1,0.8c0,0.2-0.1,0.4-0.2,0.6c-0.1,0.2-0.1,0.3-0.2,0.4     c-0.1,0.1-0.2,0.2-0.3,0.2c-0.1,0.1-0.2,0.1-0.3,0.1C177.3,64.7,177.2,64.7,177.1,64.7z M177.1,64c0.1,0,0.1,0,0.2-0.1     c0.1,0,0.1-0.1,0.1-0.2c0-0.1,0.1-0.2,0.1-0.4c0-0.1,0-0.3,0-0.5v-1.1c0-0.2,0-0.4,0-0.5c0-0.1,0-0.3-0.1-0.4     c0-0.1-0.1-0.2-0.1-0.2c-0.1,0-0.1-0.1-0.2-0.1c-0.1,0-0.2,0-0.2,0.1c-0.1,0-0.1,0.1-0.1,0.2c0,0.1-0.1,0.2-0.1,0.4     c0,0.1,0,0.3,0,0.5v1.1c0,0.2,0,0.4,0,0.5c0,0.1,0,0.3,0.1,0.4c0,0.1,0.1,0.2,0.1,0.2C177,64,177.1,64,177.1,64z"></path>
			<path d="M178.9,64c0-0.2,0-0.4,0.1-0.5c0.1-0.1,0.2-0.2,0.4-0.2c0.2,0,0.3,0.1,0.4,0.2c0.1,0.1,0.1,0.3,0.1,0.5     c0,0.2,0,0.4-0.1,0.5c-0.1,0.1-0.2,0.2-0.4,0.2c-0.2,0-0.3-0.1-0.4-0.2C178.9,64.4,178.9,64.3,178.9,64z"></path>
			<path class="st6" d="M343.2,60.5h91.9c0.6,0,1.1,0.5,1.1,1.1v0c0,0.6-0.5,1.1-1.1,1.1h-91.9c-0.6,0-1.1-0.5-1.1-1.1v0     C342.1,61,342.6,60.5,343.2,60.5z"></path>
			<path class="st7" d="M442.6,57.3h36.6c1.2,0,2.2,1,2.2,2.2v4.3c0,1.2-1,2.2-2.2,2.2h-36.6c-1.2,0-2.2-1-2.2-2.2v-4.3     C440.5,58.3,441.4,57.3,442.6,57.3z"></path>
			<path class="st6" d="M444.8,60.5h18.8c0.6,0,1.1,0.5,1.1,1.1v0c0,0.6-0.5,1.1-1.1,1.1h-18.8c-0.6,0-1.1-0.5-1.1-1.1v0     C443.7,61,444.2,60.5,444.8,60.5z"></path>
			<path class="st7" d="M487.8,57.3h22.8c1.2,0,2.2,1,2.2,2.2v4.3c0,1.2-1,2.2-2.2,2.2h-22.8c-1.2,0-2.2-1-2.2-2.2v-4.3     C485.6,58.3,486.6,57.3,487.8,57.3z"></path>
			<path class="st6" d="M489.9,60.5h16.4c0.6,0,1.1,0.5,1.1,1.1v0c0,0.6-0.5,1.1-1.1,1.1h-16.4c-0.6,0-1.1-0.5-1.1-1.1v0     C488.8,61,489.3,60.5,489.9,60.5z"></path>
			<rect x="116" y="70.7" class="st5" width="65.6" height="257.5"></rect>
			<path class="st6" d="M138.3,81.5h33.1c0.6,0,1.1,0.5,1.1,1.1l0,0c0,0.6-0.5,1.1-1.1,1.1h-33.1c-0.6,0-1.1-0.5-1.1-1.1l0,0     C137.2,82,137.7,81.5,138.3,81.5z"></path>
			<path d="M124.9,97.6h33.1c0.6,0,1.1,0.5,1.1,1.1l0,0c0,0.6-0.5,1.1-1.1,1.1h-33.1c-0.6,0-1.1-0.5-1.1-1.1l0,0     C123.8,98.1,124.3,97.6,124.9,97.6z"></path>
			<path class="st6" d="M124.9,106.2h26.6c0.6,0,1.1,0.5,1.1,1.1l0,0c0,0.6-0.5,1.1-1.1,1.1h-26.6c-0.6,0-1.1-0.5-1.1-1.1l0,0     C123.8,106.7,124.3,106.2,124.9,106.2z"></path>
			<path class="st6" d="M124.9,114.8h44.9c0.6,0,1.1,0.5,1.1,1.1l0,0c0,0.6-0.5,1.1-1.1,1.1h-44.9c-0.6,0-1.1-0.5-1.1-1.1l0,0     C123.8,115.3,124.3,114.8,124.9,114.8z"></path>
			<path class="st6" d="M124.9,123.4h36.3c0.6,0,1.1,0.5,1.1,1.1l0,0c0,0.6-0.5,1.1-1.1,1.1h-36.3c-0.6,0-1.1-0.5-1.1-1.1l0,0     C123.8,123.9,124.3,123.4,124.9,123.4z"></path>
			<path class="st6" d="M124.9,132h40.9c0.6,0,1.1,0.5,1.1,1.1l0,0c0,0.6-0.5,1.1-1.1,1.1h-40.9c-0.6,0-1.1-0.5-1.1-1.1l0,0     C123.8,132.5,124.3,132,124.9,132z"></path>
			<path class="st6" d="M124.9,140.6h33.1c0.6,0,1.1,0.5,1.1,1.1l0,0c0,0.6-0.5,1.1-1.1,1.1h-33.1c-0.6,0-1.1-0.5-1.1-1.1l0,0     C123.8,141.1,124.3,140.6,124.9,140.6z"></path>
			<path class="st6" d="M124.9,149.2h50.5c0.6,0,1.1,0.5,1.1,1.1l0,0c0,0.6-0.5,1.1-1.1,1.1h-50.5c-0.6,0-1.1-0.5-1.1-1.1l0,0     C123.8,149.7,124.3,149.2,124.9,149.2z"></path>
			<path class="st7" d="M125.9,78.3h4.3c1.2,0,2.2,1,2.2,2.2v4.3c0,1.2-1,2.2-2.2,2.2h-4.3c-1.2,0-2.2-1-2.2-2.2v-4.3     C123.8,79.2,124.8,78.3,125.9,78.3z"></path>
			<path class="st6" d="M128.1,81.5L128.1,81.5c0.6,0,1.1,0.5,1.1,1.1l0,0c0,0.6-0.5,1.1-1.1,1.1l0,0c-0.6,0-1.1-0.5-1.1-1.1l0,0     C127,82,127.5,81.5,128.1,81.5z"></path>
			<g>
				<path shape-rendering="crispEdges" class="st2" d="M197.5,82.6H261c2.4,0,4.3,1.9,4.3,4.3v52.7c0,2.4-1.9,4.3-4.3,4.3h-63.5      c-2.4,0-4.3-1.9-4.3-4.3V86.9C193.1,84.5,195.1,82.6,197.5,82.6z"></path>
				<path class="st6" d="M200.9,89H241c0.7,0,1.3,0.6,1.3,1.3l0,0c0,0.7-0.6,1.3-1.3,1.3h-40.1c-0.7,0-1.3-0.6-1.3-1.3l0,0      C199.6,89.6,200.2,89,200.9,89z"></path>
				<path class="st6" d="M203.8,96h11.6c2.3,0,4.2,1.9,4.2,4.2v0c0,2.3-1.9,4.2-4.2,4.2h-11.6c-2.3,0-4.2-1.9-4.2-4.2v0      C199.6,97.9,201.5,96,203.8,96z"></path>
				<path class="st8" d="M199.6,137.4l19.8-7.1l21.5,1.8l17.8-6.5"></path>
			</g>
			<g>
				<path shape-rendering="crispEdges" class="st2" d="M278.2,82.6h63.5c2.4,0,4.3,1.9,4.3,4.3v52.7c0,2.4-1.9,4.3-4.3,4.3h-63.5      c-2.4,0-4.3-1.9-4.3-4.3V86.9C273.9,84.5,275.8,82.6,278.2,82.6z"></path>
				<path class="st6" d="M281.7,89h33.9c0.7,0,1.3,0.6,1.3,1.3l0,0c0,0.7-0.6,1.3-1.3,1.3h-33.9c-0.7,0-1.3-0.6-1.3-1.3l0,0      C280.3,89.6,280.9,89,281.7,89z"></path>
				<path class="st6" d="M284.5,96H296c2.3,0,4.2,1.9,4.2,4.2v0c0,2.3-1.9,4.2-4.2,4.2h-11.6c-2.3,0-4.2-1.9-4.2-4.2v0      C280.3,97.9,282.2,96,284.5,96z"></path>
				<path class="st7" d="M282.5,108.6h54.9c1.2,0,2.2,1,2.2,2.2v4.3c0,1.2-1,2.2-2.2,2.2h-54.9c-1.2,0-2.2-1-2.2-2.2v-4.3      C280.3,109.6,281.3,108.6,282.5,108.6z"></path>
				<path class="st9" d="M285.7,111.2c0.3,0,0.6,0.2,0.7,0.4c0.3-0.1,0.6,0,0.8,0.2c0.2,0.2,0.3,0.5,0.2,0.8      c0.3,0.1,0.4,0.4,0.4,0.7c0,0.3-0.2,0.6-0.4,0.7c0.1,0.3,0,0.6-0.2,0.8c-0.2,0.2-0.5,0.3-0.8,0.2c-0.1,0.3-0.4,0.4-0.7,0.4      c-0.3,0-0.6-0.2-0.7-0.4c-0.3,0.1-0.6,0-0.8-0.2c-0.2-0.2-0.3-0.5-0.2-0.8c-0.3-0.1-0.4-0.4-0.4-0.7c0-0.3,0.2-0.6,0.4-0.7      c-0.1-0.3,0-0.6,0.2-0.8c0.2-0.2,0.5-0.3,0.8-0.2C285.1,111.4,285.4,111.2,285.7,111.2z M286.5,113.1c0.1-0.1,0.1-0.2,0-0.3      c-0.1-0.1-0.2-0.1-0.3,0l-0.8,0.8l-0.3-0.3c-0.1-0.1-0.2-0.1-0.3,0c-0.1,0.1-0.1,0.2,0,0.3l0.5,0.5c0.1,0.1,0.2,0.1,0.3,0      L286.5,113.1z"></path>
				<path class="st9" d="M291.8,111.9h37.9c0.6,0,1.1,0.5,1.1,1.1l0,0c0,0.6-0.5,1.1-1.1,1.1h-37.9c-0.6,0-1.1-0.5-1.1-1.1l0,0      C290.7,112.4,291.2,111.9,291.8,111.9z"></path>
				<path class="st8" d="M280.3,136.6l20.3-2l21.2-3.5l17.7-6.3"></path>
			</g>
			<g>
				<path shape-rendering="crispEdges" class="st2" d="M358.9,82.6h63.5c2.4,0,4.3,1.9,4.3,4.3v52.7c0,2.4-1.9,4.3-4.3,4.3h-63.5      c-2.4,0-4.3-1.9-4.3-4.3V86.9C354.6,84.5,356.5,82.6,358.9,82.6z"></path>
				<path class="st6" d="M362.4,89h25.5c0.7,0,1.3,0.6,1.3,1.3l0,0c0,0.7-0.6,1.3-1.3,1.3h-25.5c-0.7,0-1.3-0.6-1.3-1.3l0,0      C361,89.6,361.6,89,362.4,89z"></path>
				<path class="st6" d="M365.2,96h11.6c2.3,0,4.2,1.9,4.2,4.2v0c0,2.3-1.9,4.2-4.2,4.2h-11.6c-2.3,0-4.2-1.9-4.2-4.2v0      C361,97.9,362.9,96,365.2,96z"></path>
				<path class="st8" d="M361,137.4l21.9-5.5h25.2l12.2,2.6"></path>
			</g>
			<g>
				<path shape-rendering="crispEdges" class="st2" d="M439.6,82.6h63.5c2.4,0,4.3,1.9,4.3,4.3v52.7c0,2.4-1.9,4.3-4.3,4.3h-63.5      c-2.4,0-4.3-1.9-4.3-4.3V86.9C435.3,84.5,437.2,82.6,439.6,82.6z"></path>
				<path class="st6" d="M443.1,89h45.4c0.7,0,1.3,0.6,1.3,1.3l0,0c0,0.7-0.6,1.3-1.3,1.3h-45.4c-0.7,0-1.3-0.6-1.3-1.3l0,0      C441.7,89.6,442.3,89,443.1,89z"></path>
				<path class="st6" d="M445.9,96h11.6c2.3,0,4.2,1.9,4.2,4.2v0c0,2.3-1.9,4.2-4.2,4.2h-11.6c-2.3,0-4.2-1.9-4.2-4.2v0      C441.7,97.9,443.6,96,445.9,96z"></path>
				<path class="st8" d="M441.7,137.4l20.2-5.5l12.3-6.5l10.7-1.7h16.1"></path>
			</g>
			<g>
				<path shape-rendering="crispEdges" class="st2" d="M197.5,155.7h305.6c2.4,0,4.3,1.9,4.3,4.3v143.5c0,2.4-1.9,4.3-4.3,4.3H197.5      c-2.4,0-4.3-1.9-4.3-4.3V160C193.1,157.6,195.1,155.7,197.5,155.7z"></path>
				<path class="st6" d="M203.1,170.7h57.3c1.9,0,3.5,1.6,3.5,3.5v0c0,1.9-1.6,3.5-3.5,3.5h-57.3c-1.9,0-3.5-1.6-3.5-3.5v0      C199.6,172.3,201.2,170.7,203.1,170.7z"></path>
				<path class="st6" d="M208.2,182h19.9c4.8,0,8.6,3.9,8.6,8.6l0,0c0,4.8-3.9,8.6-8.6,8.6h-19.9c-4.8,0-8.6-3.9-8.6-8.6l0,0      C199.6,185.9,203.5,182,208.2,182z"></path>
				<path class="st10" d="M201.8,204.1h83.1c1.2,0,2.2,1,2.2,2.2v12.9c0,1.2-1,2.2-2.2,2.2h-83.1c-1.2,0-2.2-1-2.2-2.2v-12.9      C199.6,205,200.6,204.1,201.8,204.1z"></path>
				<path class="st5" d="M204.2,211.3h61c0.7,0,1.3,0.6,1.3,1.3l0,0c0,0.7-0.6,1.3-1.3,1.3h-61c-0.7,0-1.3-0.6-1.3-1.3l0,0      C202.8,211.9,203.4,211.3,204.2,211.3z"></path>
				
					<linearGradient id="SVGID_00000098201741306649554630000005632947541819137715_" gradientUnits="userSpaceOnUse" x1="350.274" y1="269.925" x2="350.274" y2="175.57" gradientTransform="matrix(1 0 0 -1 0 474)">
					<stop offset="0" style="stop-color:#E1E1DC"></stop>
					<stop offset="1" style="stop-color:#E1E1DC;stop-opacity:0"></stop>
				</linearGradient>
				<path style="fill:url(#SVGID_00000098201741306649554630000005632947541819137715_);" d="M300.5,242l-100.9,56.4h301.3v-94.4      l-90.8,52.1L300.5,242z"></path>
				<path class="st12" d="M199.6,298.4L300.5,242l109.6,14.1l90.8-52.1"></path>
			</g>
		</g>
	</g>
</g>
<g>
	<g>
		<defs>
			<path id="SVGID_00000178189864036955385010000017905998373708999612_" d="M295,170.7h388.7c4,0,7.3,3.3,7.3,7.3v260.7     c0,4-3.3,7.3-7.3,7.3H295c-4,0-7.3-3.3-7.3-7.3V178C287.8,174,291,170.7,295,170.7z"></path>
		</defs>
		<clipPath id="SVGID_00000181070592299869141210000007593029216765559480_">
			<use xlink:href="#SVGID_00000178189864036955385010000017905998373708999612_" style="overflow:visible;"></use>
		</clipPath>
		<g style="clip-path:url(#SVGID_00000181070592299869141210000007593029216765559480_);">
			<path class="st2" d="M295,170.7h388.7c4,0,7.3,3.3,7.3,7.3v260.7c0,4-3.3,7.3-7.3,7.3H295c-4,0-7.3-3.3-7.3-7.3V178     C287.8,174,291,170.7,295,170.7z"></path>
			<rect x="287.8" y="170.7" class="st2" width="403.2" height="17.7"></rect>
			<path class="st3" d="M287.8,188.5H691"></path>
			<path class="st4" d="M295.6,181h4.8v-0.5h-4.8V181z M295.6,179.6h4.8v-0.5h-4.8V179.6z M295.6,177.7v0.5h4.8v-0.5H295.6z"></path>
			<path class="st14" d="M309.6,180.3c0.1-0.1,0.3-0.1,0.5,0c0.9,0.9,2.4,0.9,3.3,0c0.9-0.9,0.9-2.4,0-3.3c-0.1-0.1-0.1-0.3,0-0.5     l0.5-0.5c0.1-0.1,0.3-0.1,0.4,0c0.1,0.1,0.1,0.3,0,0.4l-0.2,0.3c0.9,1.2,0.9,2.9-0.2,4c-0.5,0.5-1.1,0.8-1.8,0.9v0.4h1.3     c0.2,0,0.3,0.1,0.3,0.3c0,0.2-0.1,0.3-0.3,0.3h-3.2c-0.2,0-0.3-0.1-0.3-0.3c0-0.2,0.1-0.3,0.3-0.3h1.3v-0.4     c-0.5-0.1-1.1-0.3-1.5-0.6l-0.3,0.2c-0.1,0.1-0.3,0.1-0.4,0c-0.1-0.1-0.1-0.3,0-0.5L309.6,180.3z M309.8,178.6     c0-1.1,0.9-1.9,1.9-1.9c1.1,0,1.9,0.9,1.9,1.9c0,1.1-0.9,1.9-1.9,1.9C310.6,180.6,309.8,179.7,309.8,178.6z"></path>
			<path class="st15" d="M316.3,176.9h0.6l1,3.8l0.2,0.8l0.2-0.8l1-3.8h0.7l1.2,4.6l0.2-0.8l0.9-3.7h0.6l-1.3,5h-0.8l-1-3.6     l-0.1-0.8l-0.2,0.8l-1,3.6h-0.8L316.3,176.9z"></path>
			<path class="st15" d="M323.2,179.9c0-0.5,0-0.8,0.1-1c0.1-0.2,0.1-0.3,0.2-0.5c0.1-0.1,0.2-0.2,0.3-0.3c0.2-0.2,0.6-0.2,1.1-0.2     c0.7,0,1.2,0.2,1.4,0.5c0.1,0.2,0.2,0.5,0.2,0.9c0,0.2,0,0.4,0,0.6c0,0.2,0,0.4,0,0.6c0,0.2,0,0.4-0.1,0.5c0,0.1-0.1,0.3-0.2,0.4     c-0.1,0.1-0.2,0.2-0.3,0.3c-0.2,0.1-0.6,0.2-1.1,0.2c-0.7,0-1.1-0.2-1.4-0.5c-0.1-0.2-0.2-0.5-0.2-0.9     C323.2,180.3,323.2,180.1,323.2,179.9z M324.1,181.3c0.1,0.1,0.2,0.1,0.3,0.1c0.1,0,0.3,0,0.5,0c0.2,0,0.4,0,0.5-0.1     c0.1-0.1,0.2-0.2,0.3-0.3c0.1-0.1,0.1-0.3,0.1-0.5c0-0.2,0-0.4,0-0.7c0-0.3,0-0.5,0-0.7c0-0.2-0.1-0.3-0.1-0.5     c-0.1-0.2-0.4-0.4-0.9-0.4c-0.5,0-0.8,0.1-0.9,0.4c-0.1,0.1-0.1,0.3-0.1,0.5c0,0.2,0,0.4,0,0.6c0,0.2,0,0.4,0,0.6     c0,0.1,0,0.3,0,0.4c0,0.1,0.1,0.2,0.1,0.3C324,181.1,324,181.2,324.1,181.3z"></path>
			<path class="st15" d="M329,178.4c-0.3,0-0.6,0.1-0.9,0.4v3h-0.5V178h0.5l0.1,0.5c0.1-0.2,0.2-0.3,0.3-0.4     c0.1-0.1,0.2-0.1,0.3-0.2c0.1,0,0.2,0,0.3,0c0.1,0,0.2,0,0.4,0.1l-0.1,0.5C329.3,178.5,329.1,178.4,329,178.4z"></path>
			<path class="st15" d="M330.2,176.3l0.5,0v5.6h-0.5L330.2,176.3z"></path>
			<path class="st15" d="M334.6,181.4c-0.5,0.3-0.9,0.5-1.4,0.5c-0.5,0-0.9-0.2-1.1-0.6c-0.1-0.2-0.2-0.4-0.2-0.7c0-0.2,0-0.5,0-0.6     c0-0.2,0-0.4,0-0.6c0-0.2,0-0.4,0-0.5c0-0.2,0.1-0.3,0.1-0.4c0.1-0.1,0.1-0.2,0.2-0.3c0.2-0.2,0.5-0.3,1-0.3     c0.5,0,0.9,0.1,1.2,0.2v-1.8l0.5-0.1v3.8c0,0.7,0,1.3,0.1,1.8l-0.5,0L334.6,181.4z M334.6,178.6c-0.4-0.1-0.8-0.2-1.1-0.2     c-0.3,0-0.4,0-0.5,0.1c-0.1,0-0.2,0.1-0.2,0.2c0,0.1-0.1,0.2-0.1,0.3c-0.1,0.2-0.1,0.6-0.1,1.1v0.1c0,0.5,0.1,0.8,0.2,1     c0.1,0.2,0.3,0.3,0.6,0.3h0.1c0.3,0,0.6-0.1,1-0.3c0.1-0.1,0.2-0.1,0.2-0.2v0c0-0.2,0-0.5,0-0.9L334.6,178.6z"></path>
			<path class="st15" d="M336.4,176.9h2.9v0.5h-2.3v1.7h1.9v0.5h-1.9v1.8h2.4v0.5h-2.9V176.9z"></path>
			<path class="st15" d="M340.8,179.9l-1.3-1.9h0.6l1,1.6l1-1.6h0.6l-1.3,1.9l1.4,2h-0.6l-1.1-1.6l-1,1.6h-0.6L340.8,179.9z"></path>
			<path class="st6" d="M514.9,178.3h91.9c0.6,0,1.1,0.5,1.1,1.1l0,0c0,0.6-0.5,1.1-1.1,1.1h-91.9c-0.6,0-1.1-0.5-1.1-1.1l0,0     C513.8,178.8,514.3,178.3,514.9,178.3z"></path>
			<path class="st7" d="M614.4,175h36.6c1.2,0,2.2,1,2.2,2.2v4.3c0,1.2-1,2.2-2.2,2.2h-36.6c-1.2,0-2.2-1-2.2-2.2v-4.3     C612.2,176,613.2,175,614.4,175z"></path>
			<path class="st6" d="M616.5,178.3h18.8c0.6,0,1.1,0.5,1.1,1.1l0,0c0,0.6-0.5,1.1-1.1,1.1h-18.8c-0.6,0-1.1-0.5-1.1-1.1l0,0     C615.5,178.8,615.9,178.3,616.5,178.3z"></path>
			<path class="st7" d="M659.5,175h22.8c1.2,0,2.2,1,2.2,2.2v4.3c0,1.2-1,2.2-2.2,2.2h-22.8c-1.2,0-2.2-1-2.2-2.2v-4.3     C657.4,176,658.4,175,659.5,175z"></path>
			<path class="st6" d="M661.7,178.3h16.4c0.6,0,1.1,0.5,1.1,1.1l0,0c0,0.6-0.5,1.1-1.1,1.1h-16.4c-0.6,0-1.1-0.5-1.1-1.1l0,0     C660.6,178.8,661.1,178.3,661.7,178.3z"></path>
			<rect x="287.8" y="188.5" class="st16" width="65.6" height="257.5"></rect>
			<path class="st6" d="M310.1,199.2h33.1c0.6,0,1.1,0.5,1.1,1.1l0,0c0,0.6-0.5,1.1-1.1,1.1h-33.1c-0.6,0-1.1-0.5-1.1-1.1l0,0     C309,199.7,309.5,199.2,310.1,199.2z"></path>
			<path d="M296.6,215.4h33.1c0.6,0,1.1,0.5,1.1,1.1l0,0c0,0.6-0.5,1.1-1.1,1.1h-33.1c-0.6,0-1.1-0.5-1.1-1.1l0,0     C295.6,215.8,296.1,215.4,296.6,215.4z"></path>
			<path class="st6" d="M296.6,224h26.6c0.6,0,1.1,0.5,1.1,1.1l0,0c0,0.6-0.5,1.1-1.1,1.1h-26.6c-0.6,0-1.1-0.5-1.1-1.1l0,0     C295.6,224.4,296.1,224,296.6,224z"></path>
			<path class="st6" d="M296.6,232.6h44.9c0.6,0,1.1,0.5,1.1,1.1l0,0c0,0.6-0.5,1.1-1.1,1.1h-44.9c-0.6,0-1.1-0.5-1.1-1.1l0,0     C295.6,233.1,296.1,232.6,296.6,232.6z"></path>
			<path class="st6" d="M296.6,241.2h36.3c0.6,0,1.1,0.5,1.1,1.1l0,0c0,0.6-0.5,1.1-1.1,1.1h-36.3c-0.6,0-1.1-0.5-1.1-1.1l0,0     C295.6,241.7,296.1,241.2,296.6,241.2z"></path>
			<path class="st6" d="M296.6,249.8h40.9c0.6,0,1.1,0.5,1.1,1.1l0,0c0,0.6-0.5,1.1-1.1,1.1h-40.9c-0.6,0-1.1-0.5-1.1-1.1l0,0     C295.6,250.3,296.1,249.8,296.6,249.8z"></path>
			<path class="st6" d="M296.6,258.4h33.1c0.6,0,1.1,0.5,1.1,1.1v0c0,0.6-0.5,1.1-1.1,1.1h-33.1c-0.6,0-1.1-0.5-1.1-1.1v0     C295.6,258.9,296.1,258.4,296.6,258.4z"></path>
			<path class="st6" d="M296.6,267h50.5c0.6,0,1.1,0.5,1.1,1.1v0c0,0.6-0.5,1.1-1.1,1.1h-50.5c-0.6,0-1.1-0.5-1.1-1.1v0     C295.6,267.5,296.1,267,296.6,267z"></path>
			<path class="st7" d="M297.7,196h4.3c1.2,0,2.2,1,2.2,2.2v4.3c0,1.2-1,2.2-2.2,2.2h-4.3c-1.2,0-2.2-1-2.2-2.2v-4.3     C295.6,197,296.5,196,297.7,196z"></path>
			<path class="st6" d="M299.9,199.2L299.9,199.2c0.6,0,1.1,0.5,1.1,1.1l0,0c0,0.6-0.5,1.1-1.1,1.1h0c-0.6,0-1.1-0.5-1.1-1.1l0,0     C298.8,199.7,299.3,199.2,299.9,199.2z"></path>
			<g>
				<path shape-rendering="crispEdges" class="st2" d="M368.7,199.2h157c2.4,0,4.3,1.9,4.3,4.3v143.5c0,2.4-1.9,4.3-4.3,4.3h-157      c-2.4,0-4.3-1.9-4.3-4.3V203.5C364.4,201.2,366.3,199.2,368.7,199.2z"></path>
				<path class="st6" d="M374.3,214.3h57.3c1.9,0,3.5,1.6,3.5,3.5v0c0,1.9-1.6,3.5-3.5,3.5h-57.3c-1.9,0-3.5-1.6-3.5-3.5v0      C370.8,215.9,372.4,214.3,374.3,214.3z"></path>
				<path class="st6" d="M379.4,225.6h19.9c4.8,0,8.6,3.9,8.6,8.6l0,0c0,4.8-3.9,8.6-8.6,8.6h-19.9c-4.8,0-8.6-3.9-8.6-8.6l0,0      C370.8,229.4,374.7,225.6,379.4,225.6z"></path>
				
					<linearGradient id="SVGID_00000026855789829169440720000009257136017657181601_" gradientUnits="userSpaceOnUse" x1="446.6445" y1="226.376" x2="446.6445" y2="132.022" gradientTransform="matrix(1 0 0 -1 0 474)">
					<stop offset="0" style="stop-color:#7CA3DF"></stop>
					<stop offset="1" style="stop-color:#C1DAFF;stop-opacity:0"></stop>
				</linearGradient>
				<path style="fill:url(#SVGID_00000026855789829169440720000009257136017657181601_);" d="M421.6,285.6L370.8,342h151.6v-94.4      l-45.7,52.1L421.6,285.6z"></path>
				<path class="st18" d="M370.8,342l50.8-56.4l55.2,14.1l45.7-52.1"></path>
			</g>
			<g>
				<path shape-rendering="crispEdges" class="st19" d="M543.4,271.3h131.5c2.4,0,4.3,1.9,4.3,4.3v71.5c0,2.4-1.9,4.3-4.3,4.3H543.4      c-2.4,0-4.3-1.9-4.3-4.3v-71.5C539.1,273.2,541,271.3,543.4,271.3z"></path>
				<path class="st20" d="M546.9,286.3h61.6c0.7,0,1.3,0.6,1.3,1.3l0,0c0,0.7-0.6,1.3-1.3,1.3h-61.6c-0.7,0-1.3-0.6-1.3-1.3l0,0      C545.6,286.9,546.2,286.3,546.9,286.3z"></path>
				<path class="st20" d="M549.1,297.6h116.7c1.9,0,3.5,1.6,3.5,3.5v0c0,1.9-1.6,3.5-3.5,3.5H549.1c-1.9,0-3.5-1.6-3.5-3.5v0      C545.6,299.2,547.1,297.6,549.1,297.6z"></path>
			</g>
			<g>
				<path shape-rendering="crispEdges" class="st2" d="M543.4,199.2h57.1c2.4,0,4.3,1.9,4.3,4.3v52.7c0,2.4-1.9,4.3-4.3,4.3h-57.1      c-2.4,0-4.3-1.9-4.3-4.3v-52.7C539.1,201.2,541,199.2,543.4,199.2z"></path>
				<path class="st6" d="M546.9,205.7h25.5c0.7,0,1.3,0.6,1.3,1.3l0,0c0,0.7-0.6,1.3-1.3,1.3h-25.5c-0.7,0-1.3-0.6-1.3-1.3l0,0      C545.6,206.3,546.2,205.7,546.9,205.7z"></path>
				<path class="st6" d="M549.7,212.7h11.6c2.3,0,4.2,1.9,4.2,4.2v0c0,2.3-1.9,4.2-4.2,4.2h-11.6c-2.3,0-4.2-1.9-4.2-4.2v0      C545.6,214.5,547.4,212.7,549.7,212.7z"></path>
			</g>
			<g>
				<path shape-rendering="crispEdges" class="st2" d="M617.7,199.2h57.1c2.4,0,4.3,1.9,4.3,4.3v52.7c0,2.4-1.9,4.3-4.3,4.3h-57.1      c-2.4,0-4.3-1.9-4.3-4.3v-52.7C613.4,201.2,615.4,199.2,617.7,199.2z"></path>
				<path class="st6" d="M621.2,205.7h45.4c0.7,0,1.3,0.6,1.3,1.3l0,0c0,0.7-0.6,1.3-1.3,1.3h-45.4c-0.7,0-1.3-0.6-1.3-1.3l0,0      C619.9,206.3,620.5,205.7,621.2,205.7z"></path>
				<path class="st6" d="M624.1,212.7h11.6c2.3,0,4.2,1.9,4.2,4.2v0c0,2.3-1.9,4.2-4.2,4.2h-11.6c-2.3,0-4.2-1.9-4.2-4.2v0      C619.9,214.5,621.8,212.7,624.1,212.7z"></path>
			</g>
			<g>
				<path shape-rendering="crispEdges" class="st2" d="M368.7,362.1h157c2.4,0,4.3,1.9,4.3,4.3v62.9c0,2.4-1.9,4.3-4.3,4.3h-157      c-2.4,0-4.3-1.9-4.3-4.3v-62.9C364.4,364.1,366.3,362.1,368.7,362.1z"></path>
				<circle class="st6" cx="382.5" cy="380.3" r="11.7"></circle>
				<path class="st6" d="M404.2,375.4h66.4c0.7,0,1.3,0.6,1.3,1.3l0,0c0,0.7-0.6,1.3-1.3,1.3h-66.4c-0.7,0-1.3-0.6-1.3-1.3l0,0      C402.8,376,403.4,375.4,404.2,375.4z"></path>
				<path class="st6" d="M404.2,382.4H444c0.7,0,1.3,0.6,1.3,1.3l0,0c0,0.7-0.6,1.3-1.3,1.3h-39.8c-0.7,0-1.3-0.6-1.3-1.3l0,0      C402.8,383,403.4,382.4,404.2,382.4z"></path>
				<path class="st21" d="M375.1,400.3h140.6c2.4,0,4.3,1.9,4.3,4.3v9.7c0,2.4-1.9,4.3-4.3,4.3H375.1c-2.4,0-4.3-1.9-4.3-4.3v-9.7      C370.8,402.2,372.8,400.3,375.1,400.3z"></path>
				<path class="st6" d="M376.5,404.6H513c0.7,0,1.3,0.6,1.3,1.3l0,0c0,0.7-0.6,1.3-1.3,1.3H376.5c-0.7,0-1.3-0.6-1.3-1.3l0,0      C375.1,405.2,375.7,404.6,376.5,404.6z"></path>
				<path class="st6" d="M376.5,411.6h120.7c0.7,0,1.3,0.6,1.3,1.3l0,0c0,0.7-0.6,1.3-1.3,1.3H376.5c-0.7,0-1.3-0.6-1.3-1.3l0,0      C375.1,412.2,375.7,411.6,376.5,411.6z"></path>
			</g>
			<g>
				<path shape-rendering="crispEdges" class="st2" d="M545.3,362.1h129.6c2.4,0,4.3,1.9,4.3,4.3v62.9c0,2.4-1.9,4.3-4.3,4.3H545.3      c-2.4,0-4.3-1.9-4.3-4.3v-62.9C541,364.1,542.9,362.1,545.3,362.1z"></path>
				<path class="st6" d="M548.8,368.6h33.9c0.7,0,1.3,0.6,1.3,1.3l0,0c0,0.7-0.6,1.3-1.3,1.3h-33.9c-0.7,0-1.3-0.6-1.3-1.3l0,0      C547.5,369.2,548.1,368.6,548.8,368.6z"></path>
				<path class="st6" d="M551.6,375.6h11.6c2.3,0,4.2,1.9,4.2,4.2v0c0,2.3-1.9,4.2-4.2,4.2h-11.6c-2.3,0-4.2-1.9-4.2-4.2v0      C547.5,377.4,549.3,375.6,551.6,375.6z"></path>
				<path class="st7" d="M549.6,388.2h121c1.2,0,2.2,1,2.2,2.2v4.3c0,1.2-1,2.2-2.2,2.2h-121c-1.2,0-2.2-1-2.2-2.2v-4.3      C547.5,389.2,548.4,388.2,549.6,388.2z"></path>
				<path class="st9" d="M552.8,390.8c0.3,0,0.6,0.2,0.7,0.4c0.3-0.1,0.6,0,0.8,0.2c0.2,0.2,0.3,0.5,0.2,0.8      c0.3,0.1,0.4,0.4,0.4,0.7c0,0.3-0.2,0.6-0.4,0.7c0.1,0.3,0,0.6-0.2,0.8c-0.2,0.2-0.5,0.3-0.8,0.2c-0.1,0.3-0.4,0.4-0.7,0.4      c-0.3,0-0.6-0.2-0.7-0.4c-0.3,0.1-0.6,0-0.8-0.2c-0.2-0.2-0.3-0.5-0.2-0.8c-0.3-0.1-0.4-0.4-0.4-0.7c0-0.3,0.2-0.6,0.4-0.7      c-0.1-0.3,0-0.6,0.2-0.8c0.2-0.2,0.5-0.3,0.8-0.2C552.2,390.9,552.5,390.8,552.8,390.8z M553.6,392.6c0.1-0.1,0.1-0.2,0-0.3      c-0.1-0.1-0.2-0.1-0.3,0l-0.8,0.8l-0.3-0.3c-0.1-0.1-0.2-0.1-0.3,0c-0.1,0.1-0.1,0.2,0,0.3l0.5,0.5c0.1,0.1,0.2,0.1,0.3,0      L553.6,392.6z"></path>
				<path class="st9" d="M558.9,391.4h37.9c0.6,0,1.1,0.5,1.1,1.1v0c0,0.6-0.5,1.1-1.1,1.1h-37.9c-0.6,0-1.1-0.5-1.1-1.1v0      C557.8,391.9,558.3,391.4,558.9,391.4z"></path>
				<path class="st8" d="M547.5,416.2l42.9-2l44.9-3.5l37.5-6.3"></path>
			</g>
		</g>
	</g>
</g>
</svg>
